<svg xmlns="http://www.w3.org/2000/svg" version="1.1" xmlns:xlink="http://www.w3.org/1999/xlink" xmlns:svgjs="http://svgjs.dev/svgjs" width="1500" height="375" viewBox="0 0 1500 375"><g transform="matrix(1,0,0,1,0.44930212737108377,-1.720805530600245)"><svg viewBox="0 0 396 99" data-background-color="#ffffff" preserveAspectRatio="xMidYMid meet" height="375" width="1500" xmlns="http://www.w3.org/2000/svg" xmlns:xlink="http://www.w3.org/1999/xlink"><g id="tight-bounds" transform="matrix(1,0,0,1,0.2400000000000091,0.45429266007846536)"><svg viewBox="0 0 395.52 98.09141467984308" height="98.09141467984308" width="395.52"><g><svg viewBox="0 0 542.1600046221886 134.45904590468433" height="98.09141467984308" width="395.52"><g transform="matrix(1,0,0,1,146.64000462218857,40.6467123617108)"><svg viewBox="0 0 395.52 53.16562118126273" height="53.16562118126273" width="395.52"><g id="textblocktransform"><svg viewBox="0 0 395.52 53.16562118126273" height="53.16562118126273" width="395.52" id="textblock"><g><svg viewBox="0 0 395.52 53.16562118126273" height="53.16562118126273" width="395.52"><g transform="matrix(1,0,0,1,0,0)"><svg width="395.52" viewBox="0.7 -38.9 296.58 39.6" height="53.16562118126273" data-palette-color="#000000"><g class="wordmark-text-0" data-fill-palette-color="primary" id="text-0"><path d="M38.3-38.9L38.3-26.8 29.7-26.8 29.7-30.7 26.5-30.7 26.5-8.2 30-8.2 30 0 9 0 9-8.2 12.5-8.2 12.5-30.7 9.3-30.7 9.3-26.8 0.7-26.8 0.7-38.9 38.3-38.9ZM61.25-28.5Q62.25-28.5 63.15-28.3 64.05-28.1 64.65-27.8L64.65-27.8 64.65-18.25Q62.6-19.1 60.25-19.1L60.25-19.1Q57.1-19.1 55.4-17.45 53.7-15.8 53.7-12.55L53.7-12.55 53.7-8.2 58.2-8.2 58.2 0 40 0 40-8.2 42.2-8.2 42.2-19.6 40-19.6 40-27.8 53.7-27.8 53.7-24.15Q55.1-26.25 56.9-27.38 58.7-28.5 61.25-28.5L61.25-28.5ZM93.19-8.2L95.39-8.2 95.39 0 82.19 0 82.19-3.4Q81.09-1.8 79.12-0.55 77.14 0.7 74.3 0.7L74.3 0.7Q70.55 0.7 68.39-1.3 66.25-3.3 66.25-6.95L66.25-6.95Q66.25-16.4 82.3-16.65L82.3-16.65Q82.14-18.35 81-18.98 79.84-19.6 77.09-19.6L77.09-19.6Q74.84-19.6 72.27-19.13 69.69-18.65 67.55-17.85L67.55-17.85 67.55-27.05Q70.19-27.7 73.3-28.1 76.39-28.5 79.34-28.5L79.34-28.5Q86.8-28.5 90-25.8 93.19-23.1 93.19-17.45L93.19-17.45 93.19-8.2ZM82.19-11.4L82.19-11.7Q79.94-11.7 78.72-11.1 77.5-10.5 77.5-9.1L77.5-9.1Q77.5-8.25 78.02-7.73 78.55-7.2 79.5-7.2L79.5-7.2Q80.8-7.2 81.5-8.3 82.19-9.4 82.19-11.4L82.19-11.4ZM119.89 0L104.99 0 98.69-19.6 96.59-19.6 96.59-27.8 112.04-27.8 112.04-19.6 109.94-19.6 112.59-9.7 113.09-9.7 115.74-19.6 113.64-19.6 113.64-27.8 128.14-27.8 128.14-19.6 126.04-19.6 119.89 0ZM144.44 0.7Q137.34 0.7 133.34-3.03 129.34-6.75 129.34-13.9L129.34-13.9Q129.34-21.05 133.34-24.78 137.34-28.5 144.44-28.5L144.44-28.5Q151.49-28.5 154.62-24.83 157.74-21.15 157.74-15.7L157.74-15.7 157.74-12.1 141.54-12.1 141.54-11.8Q141.54-9.95 142.64-9.08 143.74-8.2 146.29-8.2L146.29-8.2Q149.34-8.2 152.09-8.65 154.84-9.1 156.89-9.8L156.89-9.8 156.89-1.8Q155.14-0.85 151.77-0.08 148.39 0.7 144.44 0.7L144.44 0.7ZM141.54-17.6L147.34-17.6 147.34-18.2Q147.34-19.9 146.62-20.65 145.89-21.4 144.44-21.4L144.44-21.4Q142.99-21.4 142.27-20.63 141.54-19.85 141.54-18.2L141.54-18.2 141.54-17.6ZM175.14 0.05L159.24 0.05 159.24-8.2 161.44-8.2 161.44-30.7 159.24-30.7 159.24-38.9 172.94-38.9 172.94-8.2 175.14-8.2 175.14 0.05ZM210.59 0L176.84 0 176.84-8.2 179.34-8.2 179.34-30.7 176.84-30.7 176.84-38.9 210.59-38.9 210.59-23.8 199.39-23.8 199.39-30.7 193.34-30.7 193.34-22.8 197.74-22.8 197.74-17.1 193.34-17.1 193.34-8.2 199.39-8.2 199.39-16.1 210.59-16.1 210.59 0ZM239.33-8.2L241.53-8.2 241.53 0 228.33 0 228.33-3.4Q227.23-1.8 225.26-0.55 223.28 0.7 220.43 0.7L220.43 0.7Q216.68 0.7 214.53-1.3 212.38-3.3 212.38-6.95L212.38-6.95Q212.38-16.4 228.43-16.65L228.43-16.65Q228.28-18.35 227.13-18.98 225.98-19.6 223.23-19.6L223.23-19.6Q220.98-19.6 218.41-19.13 215.83-18.65 213.68-17.85L213.68-17.85 213.68-27.05Q216.33-27.7 219.43-28.1 222.53-28.5 225.48-28.5L225.48-28.5Q232.93-28.5 236.13-25.8 239.33-23.1 239.33-17.45L239.33-17.45 239.33-8.2ZM228.33-11.4L228.33-11.7Q226.08-11.7 224.86-11.1 223.63-10.5 223.63-9.1L223.63-9.1Q223.63-8.25 224.16-7.73 224.68-7.2 225.63-7.2L225.63-7.2Q226.93-7.2 227.63-8.3 228.33-9.4 228.33-11.4L228.33-11.4ZM255.28 0.7Q248.98 0.7 243.13-1.3L243.13-1.3 243.13-8.7 251.23-8.7 251.23-8.2Q251.23-5.8 254.28-5.8L254.28-5.8Q256.98-5.8 256.98-7.65L256.98-7.65Q256.98-8.65 256.21-9.15 255.43-9.65 253.48-10L253.48-10 250.98-10.45Q243.13-11.85 243.13-19.35L243.13-19.35Q243.13-23.7 246.43-26.1 249.73-28.5 255.33-28.5L255.33-28.5Q261.58-28.5 265.88-26.4L265.88-26.4 265.88-19.45 258.28-19.45 258.28-19.95Q258.28-20.95 257.61-21.48 256.93-22 255.63-22L255.63-22Q253.13-22 253.13-20.4L253.13-20.4Q253.13-19.55 253.83-19.1 254.53-18.65 256.38-18.25L256.38-18.25 259.23-17.7Q263.68-16.85 265.58-14.55 267.48-12.25 267.48-8.65L267.48-8.65Q267.48-4.1 264.31-1.7 261.13 0.7 255.28 0.7L255.28 0.7ZM283.98 0.7Q276.88 0.7 272.88-3.03 268.88-6.75 268.88-13.9L268.88-13.9Q268.88-21.05 272.88-24.78 276.88-28.5 283.98-28.5L283.98-28.5Q291.03-28.5 294.15-24.83 297.28-21.15 297.28-15.7L297.28-15.7 297.28-12.1 281.08-12.1 281.08-11.8Q281.08-9.95 282.18-9.08 283.28-8.2 285.83-8.2L285.83-8.2Q288.88-8.2 291.63-8.65 294.38-9.1 296.43-9.8L296.43-9.8 296.43-1.8Q294.68-0.85 291.3-0.08 287.93 0.7 283.98 0.7L283.98 0.7ZM281.08-17.6L286.88-17.6 286.88-18.2Q286.88-19.9 286.15-20.65 285.43-21.4 283.98-21.4L283.98-21.4Q282.53-21.4 281.8-20.63 281.08-19.85 281.08-18.2L281.08-18.2 281.08-17.6Z" fill="#000000" data-fill-palette-color="primary"></path></g></svg></g></svg></g></svg></g></svg></g><g><svg viewBox="0 0 134.0888774362008 134.45904590468433" height="134.45904590468433" width="134.0888774362008"><g><svg xmlns="http://www.w3.org/2000/svg" xmlns:xlink="http://www.w3.org/1999/xlink" version="1.1" x="0" y="0" viewBox="1.3564253485114377 1.3159999999999998 29.287149302977124 29.368000000000002" enable-background="new 0 0 32 32" xml:space="preserve" height="134.45904590468433" width="134.0888774362008" class="icon-icon-0" data-fill-palette-color="accent" id="icon-0"><path d="M30.171 7.314C30.146 7.04 29.956 6.816 29.75 6.816S29.375 6.647 29.375 6.441 29.153 6.104 28.882 6.149L27.41 6.399C27.114 4.607 26.67 3.486 26 2.816 24 0.816 8 0.816 6 2.816 5.331 3.486 4.886 4.607 4.589 6.399L3.118 6.15C2.847 6.104 2.625 6.235 2.625 6.441S2.456 6.816 2.25 6.816 1.854 7.041 1.829 7.314L1.359 12.38A0.45 0.45 0 0 0 1.813 12.878H2.875A0.56 0.56 0 0 0 3.421 12.38L3.814 8.148A0.46 0.46 0 0 1 4.354 7.733L4.408 7.742C4.007 11.396 4 29.684 4 29.684 4 30.237 4.14 30.684 4.313 30.684H6.875C7.048 30.684 7.188 30.237 7.188 29.684V27.791C11.831 28.489 20.17 28.489 24.813 27.791V29.68C24.813 30.233 24.954 30.68 25.125 30.68H27.687C27.859 30.68 27.999 30.233 27.999 29.68 27.999 29.68 27.992 11.397 27.592 7.743L27.646 7.734A0.46 0.46 0 0 1 28.185 8.149L28.579 12.381A0.56 0.56 0 0 0 29.125 12.879H30.187A0.45 0.45 0 0 0 30.641 12.381zM7.125 23.371A1.812 1.812 0 1 1 7.125 19.746 1.812 1.812 0 0 1 7.126 23.371M5.042 15.977C5.143 8.542 5.491 4.739 6.707 3.523 7.194 3.037 10.484 2.316 16 2.316S24.806 3.036 25.293 3.523C26.51 4.739 26.857 8.543 26.958 15.978 25.783 16.451 22.054 17.003 16 17.003 9.951 17.004 6.222 16.452 5.042 15.977M23.062 21.559A1.812 1.812 0 1 1 26.687 21.559 1.812 1.812 0 0 1 23.062 21.56" fill="#0000a2" data-fill-palette-color="accent"></path></svg></g></svg></g></svg></g><defs></defs></svg><rect width="395.52" height="98.09141467984308" fill="none" stroke="none" visibility="hidden"></rect></g></svg></g></svg>